{
  "accessors": [
    {
      "bufferView": 2,
      "componentType": 5126,
      "count": 33976,
      "max": [
        20.643095016479492,
        8.015466690063477,
        32.019561767578125
      ],
      "min": [
        -21.656129837036133,
        -8.01546859741211,
        -0.04307299852371216
      ],
      "type": "VEC3"
    },
    {
      "bufferView": 2,
      "byteOffset": 407712,
      "componentType": 5126,
      "count": 33976,
      "max": [
        1.0,
        1.0,
        1.0
      ],
      "min": [
        -1.0,
        -1.0,
        -1.0
      ],
      "type": "VEC3"
    },
    {
      "bufferView": 1,
      "componentType": 5126,
      "count": 33976,
      "max": [
        0.9989849925041199,
        0.9999619722366333
      ],
      "min": [
        0.00020500000391621143,
        0.03137899935245514
      ],
      "type": "VEC2"
    },
    {
      "bufferView": 0,
      "componentType": 5125,
      "count": 63192,
      "type": "SCALAR"
    },
    {
      "bufferView": 2,
      "byteOffset": 815424,
      "componentType": 5126,
      "count": 32303,
      "max": [
        20.614978790283203,
        7.987600803375244,
        32.0048713684082
      ],
      "min": [
        -21.642253875732422,
        -7.987603187561035,
        -0.013073000125586987
      ],
      "type": "VEC3"
    },
    {
      "bufferView": 2,
      "byteOffset": 1203060,
      "componentType": 5126,
      "count": 32303,
      "max": [
        1.0,
        1.0,
        1.0
      ],
      "min": [
        -1.0,
        -1.0,
        -1.0
      ],
      "type": "VEC3"
    },
    {
      "bufferView": 1,
      "byteOffset": 271808,
      "componentType": 5126,
      "count": 32303,
      "max": [
        0.9993500113487244,
        0.9999619722366333
      ],
      "min": [
        0.00020500000391621143,
        0.00045399999362416565
      ],
      "type": "VEC2"
    },
    {
      "bufferView": 0,
      "byteOffset": 252768,
      "componentType": 5125,
      "count": 80250,
      "type": "SCALAR"
    }
  ],
  "asset": {
    "extras": {
      "author": "Roman_Nilikovskii (https://sketchfab.com/Roman_Nilikovskii)",
      "license": "CC-BY-4.0 (http://creativecommons.org/licenses/by/4.0/)",
      "source": "https://sketchfab.com/3d-models/viking-house-cea7cbebcd3842e5b08d72b237ca830a",
      "title": "Viking House"
    },
    "generator": "Sketchfab-16.12.0",
    "version": "2.0"
  },
  "bufferViews": [
    {
      "buffer": 0,
      "byteLength": 573768,
      "name": "floatBufferViews",
      "target": 34963
    },
    {
      "buffer": 0,
      "byteLength": 530232,
      "byteOffset": 573768,
      "byteStride": 8,
      "name": "floatBufferViews",
      "target": 34962
    },
    {
      "buffer": 0,
      "byteLength": 1590696,
      "byteOffset": 1104000,
      "byteStride": 12,
      "name": "floatBufferViews",
      "target": 34962
    }
  ],
  "buffers": [
    {
      "byteLength": 2694696,
      "uri": "scene.bin"
    }
  ],
  "extensionsUsed": [
    "KHR_materials_unlit",
    "KHR_texture_transform"
  ],
  "images": [
    {
      "uri": "textures/osnova_baseColor.png"
    }
  ],
  "materials": [
    {
      "extensions": {
        "KHR_materials_unlit": {}
      },
      "name": "kontur",
      "pbrMetallicRoughness": {
        "baseColorFactor": [
          0.016789177993879932,
          0.01081644648992334,
          0.01081644648992334,
          1.0
        ],
        "metallicFactor": 0.0
      }
    },
    {
      "doubleSided": true,
      "extensions": {
        "KHR_materials_unlit": {}
      },
      "name": "osnova",
      "pbrMetallicRoughness": {
        "baseColorTexture": {
          "extensions": {
            "KHR_texture_transform": {
              "scale": [
                1.000214506052654,
                1
              ]
            }
          },
          "index": 0
        },
        "metallicFactor": 0.0
      }
    }
  ],
  "meshes": [
    {
      "name": "Object_0",
      "primitives": [
        {
          "attributes": {
            "NORMAL": 1,
            "POSITION": 0,
            "TEXCOORD_0": 2
          },
          "indices": 3,
          "material": 0,
          "mode": 4
        }
      ]
    },
    {
      "name": "Object_1",
      "primitives": [
        {
          "attributes": {
            "NORMAL": 5,
            "POSITION": 4,
            "TEXCOORD_0": 6
          },
          "indices": 7,
          "material": 1,
          "mode": 4
        }
      ]
    }
  ],
  "nodes": [
    {
      "children": [
        1
      ],
      "matrix": [
        1.0,
        0.0,
        0.0,
        0.0,
        0.0,
        2.220446049250313e-16,
        -1.0,
        0.0,
        0.0,
        1.0,
        2.220446049250313e-16,
        0.0,
        0.0,
        0.0,
        0.0,
        1.0
      ],
      "name": "Sketchfab_model"
    },
    {
      "children": [
        2,
        3
      ],
      "name": "final.obj.cleaner.materialmerger.gles"
    },
    {
      "mesh": 0,
      "name": "Object_2"
    },
    {
      "mesh": 1,
      "name": "Object_3"
    }
  ],
  "samplers": [
    {
      "magFilter": 9729,
      "minFilter": 9987,
      "wrapS": 10497,
      "wrapT": 10497
    }
  ],
  "scene": 0,
  "scenes": [
    {
      "name": "Sketchfab_Scene",
      "nodes": [
        0
      ]
    }
  ],
  "textures": [
    {
      "sampler": 0,
      "source": 0
    }
  ]
}
